<svg width="1920" height="44" viewBox="0 0 1920 44" fill="none" xmlns="http://www.w3.org/2000/svg">
<path d="M-0.825407 0.379694L-11.756 15.0523H-21.6173L-10.6867 0.379694L-21.5355 0.379694L-21.5055 0.33905L-58.784 0.33905L-68.8526 13.9619H-52.8003L-74.6882 43.3429H-42.6934L-31.7628 28.6699H-21.9015L-32.8321 43.3429H-0.805251L31.201 0.379281L-0.825407 0.379281V0.379694ZM154.375 43.3129H196.382L196.409 38.5501H157.892L154.375 43.3129ZM196.409 29.6897H164.419L160.902 34.452H196.382L196.409 29.6897ZM-69.184 29.6897H-111.191L-111.219 34.452H-72.7023L-69.184 29.6897ZM-111.219 43.3129H-79.2288L-75.711 38.5501H-111.191L-111.219 43.3129ZM87.5265 31.8672C91.551 26.4648 91.0571 22.7567 87.3711 21.1901C91.8886 19.2399 96.1619 16.0754 99.234 11.9514C104.902 4.47081 101.637 0.411306 94.1739 0.443329L38.1063 0.443329L6.10003 43.407H65.3285C72.7039 43.407 82.0256 39.3795 87.5265 31.8672ZM57.72 30.3006C56.6483 31.7391 54.3955 33.1777 52.9586 33.1777H45.7152L50.0017 27.4234H57.245C58.6819 27.4238 58.7917 28.8624 57.72 30.3006ZM67.0936 13.5181C66.0219 14.9567 63.7452 16.4268 62.3087 16.4268H58.1942L62.5045 10.641H66.619C68.0555 10.641 68.1653 12.0795 67.0936 13.5181ZM126.405 29.7254L148.266 0.379694L116.271 0.379694L84.2649 43.3433L149.751 43.3433L159.896 29.7254H126.405Z" fill="#EE3928"/>
<path d="M415.311 0.379687L404.381 15.0523H394.519L405.45 0.379687L394.601 0.379687L394.631 0.339043L357.353 0.339043L347.284 13.9619H363.336L341.448 43.3429H373.443L384.374 28.6699H394.235L383.305 43.3429H415.331L447.338 0.379273L415.311 0.379273V0.379687ZM570.511 43.3129H612.518L612.545 38.5501H574.029L570.511 43.3129ZM612.546 29.6897H580.556L577.038 34.452H612.519L612.546 29.6897ZM346.953 29.6897H304.945L304.918 34.452H343.434L346.953 29.6897ZM304.918 43.3129H336.908L340.426 38.5501H304.945L304.918 43.3129ZM503.663 31.8672C507.688 26.4648 507.194 22.7567 503.508 21.19C508.025 19.2399 512.299 16.0754 515.371 11.9514C521.039 4.47081 517.774 0.411299 510.311 0.443321L454.243 0.443321L422.237 43.4069H481.465C488.841 43.4069 498.162 39.3795 503.663 31.8672ZM473.857 30.3005C472.785 31.7391 470.532 33.1777 469.095 33.1777H461.852L466.138 27.4234H473.382C474.819 27.4238 474.928 28.8624 473.857 30.3005ZM483.23 13.5181C482.159 14.9567 479.882 16.4268 478.445 16.4268H474.331L478.641 10.641H482.756C484.192 10.641 484.302 12.0795 483.23 13.5181ZM542.541 29.7254L564.403 0.379687L532.408 0.379687L500.402 43.3433L565.888 43.3433L576.033 29.7254H542.541Z" fill="#EE3928"/>
<path d="M831.448 0.379671L820.517 15.0523H810.656L821.587 0.379671L810.738 0.379671L810.768 0.339027L773.489 0.339027L763.421 13.9619H779.473L757.585 43.3429H789.58L800.511 28.6698H810.372L799.441 43.3429H831.468L863.474 0.379258L831.448 0.379258V0.379671ZM986.648 43.3129H1028.66L1028.68 38.5501H990.166L986.648 43.3129ZM1028.68 29.6896H996.693L993.175 34.452H1028.66L1028.68 29.6896ZM763.089 29.6896H721.082L721.055 34.452H759.571L763.089 29.6896ZM721.055 43.3129H753.045L756.562 38.5501H721.082L721.055 43.3129ZM919.8 31.8672C923.824 26.4648 923.33 22.7567 919.644 21.19C924.162 19.2399 928.435 16.0754 931.507 11.9514C937.176 4.47079 933.91 0.411283 926.447 0.443306L870.38 0.443306L838.373 43.4069H897.602C904.977 43.4069 914.299 39.3794 919.8 31.8672ZM889.993 30.3005C888.922 31.7391 886.669 33.1777 885.232 33.1777H877.989L882.275 27.4234H889.518C890.955 27.4238 891.065 28.8624 889.993 30.3005ZM899.367 13.5181C898.295 14.9566 896.019 16.4268 894.582 16.4268H890.468L894.778 10.6409H898.892C900.329 10.6409 900.439 12.0795 899.367 13.5181ZM958.678 29.7254L980.539 0.379671L948.545 0.379671L916.538 43.3433L982.025 43.3433L992.169 29.7254H958.678Z" fill="#EE3928"/>
<path d="M1247.58 0.379641L1236.65 15.0523H1226.79L1237.72 0.379641L1226.87 0.379641L1226.9 0.338997L1189.63 0.338997L1179.56 13.9619H1195.61L1173.72 43.3429H1205.72L1216.65 28.6698H1226.51L1215.58 43.3429H1247.6L1279.61 0.379227L1247.58 0.379227V0.379641ZM1402.78 43.3129H1444.79L1444.82 38.5501H1406.3L1402.78 43.3129ZM1444.82 29.6896H1412.83L1409.31 34.452H1444.79L1444.82 29.6896ZM1179.23 29.6896H1137.22L1137.19 34.452H1175.71L1179.23 29.6896ZM1137.19 43.3129H1169.18L1172.7 38.5501H1137.22L1137.19 43.3129ZM1335.94 31.8672C1339.96 26.4647 1339.47 22.7567 1335.78 21.19C1340.3 19.2399 1344.57 16.0754 1347.64 11.9514C1353.31 4.47076 1350.05 0.411253 1342.58 0.443276L1286.52 0.443276L1254.51 43.4069H1313.74C1321.11 43.4069 1330.44 39.3794 1335.94 31.8672ZM1306.13 30.3005C1305.06 31.7391 1302.81 33.1776 1301.37 33.1776H1294.13L1298.41 27.4234H1305.65C1307.09 27.4238 1307.2 28.8623 1306.13 30.3005ZM1315.5 13.5181C1314.43 14.9566 1312.16 16.4268 1310.72 16.4268H1306.6L1310.91 10.6409H1315.03C1316.47 10.6409 1316.58 12.0795 1315.5 13.5181ZM1374.81 29.7253L1396.68 0.379641L1364.68 0.379641L1332.67 43.3433L1398.16 43.3433L1408.31 29.7253H1374.81Z" fill="#EE3928"/>
<path d="M1663.72 0.379664L1652.79 15.0523H1642.93L1653.86 0.379664L1643.01 0.379664L1643.04 0.33902L1605.76 0.33902L1595.69 13.9619H1611.75L1589.86 43.3429H1621.85L1632.78 28.6698H1642.65L1631.71 43.3429H1663.74L1695.75 0.37925L1663.72 0.37925V0.379664ZM1818.92 43.3129H1860.93L1860.96 38.5501H1822.44L1818.92 43.3129ZM1860.96 29.6896H1828.97L1825.45 34.452H1860.93L1860.96 29.6896ZM1595.36 29.6896H1553.36L1553.33 34.452H1591.84L1595.36 29.6896ZM1553.33 43.3129H1585.32L1588.84 38.5501H1553.36L1553.33 43.3129ZM1752.07 31.8672C1756.1 26.4648 1755.6 22.7567 1751.92 21.19C1756.44 19.2399 1760.71 16.0754 1763.78 11.9514C1769.45 4.47078 1766.18 0.411276 1758.72 0.443299L1702.65 0.443299L1670.65 43.4069H1729.88C1737.25 43.4069 1746.57 39.3794 1752.07 31.8672ZM1722.27 30.3005C1721.2 31.7391 1718.94 33.1777 1717.51 33.1777H1710.26L1714.55 27.4234H1721.79C1723.23 27.4238 1723.34 28.8624 1722.27 30.3005ZM1731.64 13.5181C1730.57 14.9566 1728.29 16.4268 1726.86 16.4268H1722.74L1727.05 10.6409H1731.17C1732.6 10.6409 1732.71 12.0795 1731.64 13.5181ZM1790.95 29.7253L1812.81 0.379664L1780.82 0.379664L1748.81 43.3433L1814.3 43.3433L1824.44 29.7253H1790.95Z" fill="#EE3928"/>
</svg>
